<svg xmlns="http://www.w3.org/2000/svg" width="24" height="24" viewBox="0 0 24 24">
  <path id="add-image" d="M24,19a1,1,0,0,1-1,1H20v3a1,1,0,0,1-2,0V20H15a1,1,0,0,1,0-2h3V15a1,1,0,0,1,2,0v3h3A1,1,0,0,1,24,19ZM16,7a1,1,0,1,0-1-1A1,1,0,0,0,16,7ZM4.808,9.151,0,13.959V5A5.006,5.006,0,0,1,5,0H17a5.006,5.006,0,0,1,5,5v7H19a3,3,0,0,0-2.992,2.793L10.366,9.151a3.933,3.933,0,0,0-5.558,0ZM13,6a3,3,0,1,0,3-3A3,3,0,0,0,13,6ZM12,19a3,3,0,0,1,2.44-2.947L8.952,10.565a1.935,1.935,0,0,0-2.73,0L0,16.787V17a5.006,5.006,0,0,0,5,5h7Z" fill="#017bfe"/>
</svg>
